<mxfile host="app.diagrams.net" agent="Mozilla/5.0 (Macintosh; Intel Mac OS X 10.15; rv:131.0) Gecko/20100101 Firefox/131.0" version="24.7.17">
  <diagram name="Страница — 1" id="I5zE03TRTymDR4SoBqtX">
    <mxGraphModel dx="2120" dy="1373" grid="1" gridSize="10" guides="1" tooltips="1" connect="1" arrows="1" fold="1" page="1" pageScale="1" pageWidth="827" pageHeight="1169" math="0" shadow="0">
      <root>
        <mxCell id="0" />
        <mxCell id="1" parent="0" />
        <mxCell id="5Gw3UIi5LnQKVMhWuDwl-56" style="edgeStyle=orthogonalEdgeStyle;rounded=0;orthogonalLoop=1;jettySize=auto;html=1;exitX=1;exitY=0.5;exitDx=0;exitDy=0;" edge="1" parent="1" source="5Gw3UIi5LnQKVMhWuDwl-126">
          <mxGeometry relative="1" as="geometry">
            <mxPoint x="730" y="240.39130434782612" as="targetPoint" />
          </mxGeometry>
        </mxCell>
        <mxCell id="5Gw3UIi5LnQKVMhWuDwl-1" value="&lt;font style=&quot;font-size: 27px;&quot;&gt;=1&lt;/font&gt;" style="whiteSpace=wrap;html=1;aspect=fixed;" vertex="1" parent="1">
          <mxGeometry x="440" y="210" width="60" height="60" as="geometry" />
        </mxCell>
        <mxCell id="5Gw3UIi5LnQKVMhWuDwl-2" value="" style="endArrow=none;html=1;rounded=0;entryX=0;entryY=0.25;entryDx=0;entryDy=0;" edge="1" parent="1" target="5Gw3UIi5LnQKVMhWuDwl-1">
          <mxGeometry width="50" height="50" relative="1" as="geometry">
            <mxPoint x="80" y="225" as="sourcePoint" />
            <mxPoint x="100" y="210" as="targetPoint" />
          </mxGeometry>
        </mxCell>
        <mxCell id="5Gw3UIi5LnQKVMhWuDwl-3" value="" style="endArrow=none;html=1;rounded=0;entryX=0;entryY=0.5;entryDx=0;entryDy=0;" edge="1" parent="1" target="5Gw3UIi5LnQKVMhWuDwl-1">
          <mxGeometry width="50" height="50" relative="1" as="geometry">
            <mxPoint x="80" y="240" as="sourcePoint" />
            <mxPoint x="440" y="235" as="targetPoint" />
            <Array as="points">
              <mxPoint x="260" y="240" />
            </Array>
          </mxGeometry>
        </mxCell>
        <mxCell id="5Gw3UIi5LnQKVMhWuDwl-4" value="" style="endArrow=none;html=1;rounded=0;entryX=0;entryY=0.75;entryDx=0;entryDy=0;" edge="1" parent="1" source="5Gw3UIi5LnQKVMhWuDwl-34" target="5Gw3UIi5LnQKVMhWuDwl-1">
          <mxGeometry width="50" height="50" relative="1" as="geometry">
            <mxPoint x="80" y="255" as="sourcePoint" />
            <mxPoint x="450" y="245" as="targetPoint" />
          </mxGeometry>
        </mxCell>
        <mxCell id="5Gw3UIi5LnQKVMhWuDwl-7" value="&lt;p style=&quot;line-height: 100%;&quot;&gt;&lt;font style=&quot;font-size: 11px;&quot;&gt;a1&lt;/font&gt;&lt;/p&gt;" style="rounded=0;whiteSpace=wrap;html=1;" vertex="1" parent="1">
          <mxGeometry x="20" y="220" width="60" height="10" as="geometry" />
        </mxCell>
        <mxCell id="5Gw3UIi5LnQKVMhWuDwl-8" value="b1" style="rounded=0;whiteSpace=wrap;html=1;" vertex="1" parent="1">
          <mxGeometry x="20" y="235" width="60" height="10" as="geometry" />
        </mxCell>
        <mxCell id="5Gw3UIi5LnQKVMhWuDwl-9" value="P(i-1)" style="rounded=0;whiteSpace=wrap;html=1;" vertex="1" parent="1">
          <mxGeometry x="20" y="250" width="60" height="10" as="geometry" />
        </mxCell>
        <mxCell id="5Gw3UIi5LnQKVMhWuDwl-11" value="" style="endArrow=none;html=1;rounded=0;" edge="1" parent="1" source="5Gw3UIi5LnQKVMhWuDwl-12">
          <mxGeometry width="50" height="50" relative="1" as="geometry">
            <mxPoint x="120" y="320" as="sourcePoint" />
            <mxPoint x="120" y="240" as="targetPoint" />
          </mxGeometry>
        </mxCell>
        <mxCell id="5Gw3UIi5LnQKVMhWuDwl-13" value="" style="endArrow=none;html=1;rounded=0;" edge="1" parent="1" source="5Gw3UIi5LnQKVMhWuDwl-131" target="5Gw3UIi5LnQKVMhWuDwl-12">
          <mxGeometry width="50" height="50" relative="1" as="geometry">
            <mxPoint x="120" y="470" as="sourcePoint" />
            <mxPoint x="120" y="240" as="targetPoint" />
            <Array as="points" />
          </mxGeometry>
        </mxCell>
        <mxCell id="5Gw3UIi5LnQKVMhWuDwl-12" value="" style="ellipse;whiteSpace=wrap;html=1;aspect=fixed;fillColor=#000000;" vertex="1" parent="1">
          <mxGeometry x="110" y="235" width="10" height="10" as="geometry" />
        </mxCell>
        <mxCell id="5Gw3UIi5LnQKVMhWuDwl-14" value="" style="endArrow=none;html=1;rounded=0;" edge="1" parent="1" target="5Gw3UIi5LnQKVMhWuDwl-15" source="5Gw3UIi5LnQKVMhWuDwl-129">
          <mxGeometry width="50" height="50" relative="1" as="geometry">
            <mxPoint x="100" y="480" as="sourcePoint" />
            <mxPoint x="100" y="225" as="targetPoint" />
            <Array as="points" />
          </mxGeometry>
        </mxCell>
        <mxCell id="5Gw3UIi5LnQKVMhWuDwl-15" value="" style="ellipse;whiteSpace=wrap;html=1;aspect=fixed;fillColor=#000000;" vertex="1" parent="1">
          <mxGeometry x="90" y="220" width="10" height="10" as="geometry" />
        </mxCell>
        <mxCell id="5Gw3UIi5LnQKVMhWuDwl-16" value="" style="endArrow=none;html=1;rounded=0;targetPerimeterSpacing=30;endSize=6;jumpStyle=sharp;shadow=0;entryX=0.01;entryY=0.712;entryDx=0;entryDy=0;entryPerimeter=0;" edge="1" parent="1" source="5Gw3UIi5LnQKVMhWuDwl-145" target="5Gw3UIi5LnQKVMhWuDwl-24">
          <mxGeometry width="50" height="50" relative="1" as="geometry">
            <mxPoint x="110" y="480" as="sourcePoint" />
            <mxPoint x="360" y="480" as="targetPoint" />
          </mxGeometry>
        </mxCell>
        <mxCell id="5Gw3UIi5LnQKVMhWuDwl-24" value="&lt;font style=&quot;font-size: 24px;&quot;&gt;&amp;amp;&lt;/font&gt;" style="whiteSpace=wrap;html=1;aspect=fixed;" vertex="1" parent="1">
          <mxGeometry x="360" y="450" width="50" height="50" as="geometry" />
        </mxCell>
        <mxCell id="5Gw3UIi5LnQKVMhWuDwl-30" value="" style="endArrow=none;html=1;rounded=0;" edge="1" parent="1" target="5Gw3UIi5LnQKVMhWuDwl-28">
          <mxGeometry width="50" height="50" relative="1" as="geometry">
            <mxPoint x="95" y="450" as="sourcePoint" />
            <mxPoint x="95" y="230" as="targetPoint" />
            <Array as="points">
              <mxPoint x="95" y="480" />
            </Array>
          </mxGeometry>
        </mxCell>
        <mxCell id="5Gw3UIi5LnQKVMhWuDwl-28" value="" style="ellipse;whiteSpace=wrap;html=1;aspect=fixed;fillColor=#000000;" vertex="1" parent="1">
          <mxGeometry x="90" y="480" width="10" height="10" as="geometry" />
        </mxCell>
        <mxCell id="5Gw3UIi5LnQKVMhWuDwl-31" value="" style="endArrow=none;html=1;rounded=0;" edge="1" parent="1" target="5Gw3UIi5LnQKVMhWuDwl-28">
          <mxGeometry width="50" height="50" relative="1" as="geometry">
            <mxPoint x="100" y="560" as="sourcePoint" />
            <mxPoint x="110" y="510" as="targetPoint" />
            <Array as="points">
              <mxPoint x="95" y="560" />
            </Array>
          </mxGeometry>
        </mxCell>
        <mxCell id="5Gw3UIi5LnQKVMhWuDwl-32" value="" style="endArrow=none;html=1;rounded=0;entryX=0.006;entryY=0.394;entryDx=0;entryDy=0;entryPerimeter=0;" edge="1" parent="1" source="5Gw3UIi5LnQKVMhWuDwl-150" target="5Gw3UIi5LnQKVMhWuDwl-33">
          <mxGeometry width="50" height="50" relative="1" as="geometry">
            <mxPoint x="100" y="560" as="sourcePoint" />
            <mxPoint x="350" y="560" as="targetPoint" />
          </mxGeometry>
        </mxCell>
        <mxCell id="5Gw3UIi5LnQKVMhWuDwl-33" value="&lt;font style=&quot;font-size: 24px;&quot;&gt;&amp;amp;&lt;/font&gt;" style="whiteSpace=wrap;html=1;aspect=fixed;" vertex="1" parent="1">
          <mxGeometry x="360" y="540" width="50" height="50" as="geometry" />
        </mxCell>
        <mxCell id="5Gw3UIi5LnQKVMhWuDwl-38" value="" style="endArrow=none;html=1;rounded=0;" edge="1" parent="1" target="5Gw3UIi5LnQKVMhWuDwl-34">
          <mxGeometry width="50" height="50" relative="1" as="geometry">
            <mxPoint x="80" y="255" as="sourcePoint" />
            <mxPoint x="440" y="255" as="targetPoint" />
          </mxGeometry>
        </mxCell>
        <mxCell id="5Gw3UIi5LnQKVMhWuDwl-34" value="" style="ellipse;whiteSpace=wrap;html=1;aspect=fixed;fillColor=#000000;" vertex="1" parent="1">
          <mxGeometry x="150" y="250" width="10" height="10" as="geometry" />
        </mxCell>
        <mxCell id="5Gw3UIi5LnQKVMhWuDwl-39" value="" style="endArrow=none;html=1;rounded=0;" edge="1" parent="1" source="5Gw3UIi5LnQKVMhWuDwl-133" target="5Gw3UIi5LnQKVMhWuDwl-34">
          <mxGeometry width="50" height="50" relative="1" as="geometry">
            <mxPoint x="210" y="578" as="sourcePoint" />
            <mxPoint x="150" y="270" as="targetPoint" />
            <Array as="points" />
          </mxGeometry>
        </mxCell>
        <mxCell id="5Gw3UIi5LnQKVMhWuDwl-40" value="" style="ellipse;whiteSpace=wrap;html=1;aspect=fixed;fillColor=#000000;" vertex="1" parent="1">
          <mxGeometry x="110" y="460" width="10" height="10" as="geometry" />
        </mxCell>
        <mxCell id="5Gw3UIi5LnQKVMhWuDwl-43" value="" style="endArrow=none;html=1;rounded=0;entryX=0.005;entryY=0.32;entryDx=0;entryDy=0;entryPerimeter=0;" edge="1" parent="1" source="5Gw3UIi5LnQKVMhWuDwl-135" target="5Gw3UIi5LnQKVMhWuDwl-24">
          <mxGeometry width="50" height="50" relative="1" as="geometry">
            <mxPoint x="240" y="530" as="sourcePoint" />
            <mxPoint x="290" y="480" as="targetPoint" />
          </mxGeometry>
        </mxCell>
        <mxCell id="5Gw3UIi5LnQKVMhWuDwl-44" value="&lt;font style=&quot;font-size: 24px;&quot;&gt;&amp;amp;&lt;/font&gt;" style="whiteSpace=wrap;html=1;aspect=fixed;" vertex="1" parent="1">
          <mxGeometry x="360" y="610" width="50" height="50" as="geometry" />
        </mxCell>
        <mxCell id="5Gw3UIi5LnQKVMhWuDwl-45" value="" style="endArrow=none;html=1;rounded=0;" edge="1" parent="1" target="5Gw3UIi5LnQKVMhWuDwl-40">
          <mxGeometry width="50" height="50" relative="1" as="geometry">
            <mxPoint x="120" y="630" as="sourcePoint" />
            <mxPoint x="120" y="500" as="targetPoint" />
            <Array as="points">
              <mxPoint x="115" y="630" />
            </Array>
          </mxGeometry>
        </mxCell>
        <mxCell id="5Gw3UIi5LnQKVMhWuDwl-46" value="" style="endArrow=none;html=1;rounded=0;entryX=-0.01;entryY=0.398;entryDx=0;entryDy=0;entryPerimeter=0;" edge="1" parent="1" source="5Gw3UIi5LnQKVMhWuDwl-161" target="5Gw3UIi5LnQKVMhWuDwl-44">
          <mxGeometry width="50" height="50" relative="1" as="geometry">
            <mxPoint x="120" y="630" as="sourcePoint" />
            <mxPoint x="220" y="580" as="targetPoint" />
          </mxGeometry>
        </mxCell>
        <mxCell id="5Gw3UIi5LnQKVMhWuDwl-48" value="" style="endArrow=none;html=1;rounded=0;exitX=0.001;exitY=0.808;exitDx=0;exitDy=0;exitPerimeter=0;" edge="1" parent="1" source="5Gw3UIi5LnQKVMhWuDwl-33" target="5Gw3UIi5LnQKVMhWuDwl-47">
          <mxGeometry width="50" height="50" relative="1" as="geometry">
            <mxPoint x="360" y="580" as="sourcePoint" />
            <mxPoint x="155" y="260" as="targetPoint" />
            <Array as="points">
              <mxPoint x="155" y="580" />
            </Array>
          </mxGeometry>
        </mxCell>
        <mxCell id="5Gw3UIi5LnQKVMhWuDwl-47" value="" style="ellipse;whiteSpace=wrap;html=1;aspect=fixed;fillColor=#000000;" vertex="1" parent="1">
          <mxGeometry x="150" y="575" width="10" height="10" as="geometry" />
        </mxCell>
        <mxCell id="5Gw3UIi5LnQKVMhWuDwl-49" value="" style="endArrow=none;html=1;rounded=0;entryX=0.497;entryY=0.773;entryDx=0;entryDy=0;entryPerimeter=0;" edge="1" parent="1" target="5Gw3UIi5LnQKVMhWuDwl-47">
          <mxGeometry width="50" height="50" relative="1" as="geometry">
            <mxPoint x="160" y="650" as="sourcePoint" />
            <mxPoint x="170" y="590" as="targetPoint" />
            <Array as="points">
              <mxPoint x="155" y="650" />
            </Array>
          </mxGeometry>
        </mxCell>
        <mxCell id="5Gw3UIi5LnQKVMhWuDwl-50" value="" style="endArrow=none;html=1;rounded=0;entryX=0.004;entryY=0.873;entryDx=0;entryDy=0;entryPerimeter=0;" edge="1" parent="1" source="5Gw3UIi5LnQKVMhWuDwl-163" target="5Gw3UIi5LnQKVMhWuDwl-44">
          <mxGeometry width="50" height="50" relative="1" as="geometry">
            <mxPoint x="160" y="650" as="sourcePoint" />
            <mxPoint x="250" y="630" as="targetPoint" />
          </mxGeometry>
        </mxCell>
        <mxCell id="5Gw3UIi5LnQKVMhWuDwl-51" value="" style="endArrow=none;html=1;rounded=0;exitX=1;exitY=0.5;exitDx=0;exitDy=0;entryX=0.014;entryY=0.208;entryDx=0;entryDy=0;entryPerimeter=0;" edge="1" parent="1" source="5Gw3UIi5LnQKVMhWuDwl-158" target="5Gw3UIi5LnQKVMhWuDwl-54">
          <mxGeometry width="50" height="50" relative="1" as="geometry">
            <mxPoint x="480" y="490" as="sourcePoint" />
            <mxPoint x="520" y="475" as="targetPoint" />
            <Array as="points">
              <mxPoint x="560" y="475" />
              <mxPoint x="560" y="550" />
            </Array>
          </mxGeometry>
        </mxCell>
        <mxCell id="5Gw3UIi5LnQKVMhWuDwl-52" value="" style="endArrow=none;html=1;rounded=0;entryX=-0.008;entryY=0.595;entryDx=0;entryDy=0;entryPerimeter=0;" edge="1" parent="1" source="5Gw3UIi5LnQKVMhWuDwl-167" target="5Gw3UIi5LnQKVMhWuDwl-54">
          <mxGeometry width="50" height="50" relative="1" as="geometry">
            <mxPoint x="410" y="570" as="sourcePoint" />
            <mxPoint x="520" y="570" as="targetPoint" />
          </mxGeometry>
        </mxCell>
        <mxCell id="5Gw3UIi5LnQKVMhWuDwl-53" value="" style="endArrow=none;html=1;rounded=0;" edge="1" parent="1" source="5Gw3UIi5LnQKVMhWuDwl-169">
          <mxGeometry width="50" height="50" relative="1" as="geometry">
            <mxPoint x="410" y="640" as="sourcePoint" />
            <mxPoint x="590" y="640" as="targetPoint" />
          </mxGeometry>
        </mxCell>
        <mxCell id="5Gw3UIi5LnQKVMhWuDwl-54" value="&lt;font style=&quot;font-size: 24px;&quot;&gt;1&lt;/font&gt;" style="whiteSpace=wrap;html=1;aspect=fixed;" vertex="1" parent="1">
          <mxGeometry x="600" y="540" width="50" height="50" as="geometry" />
        </mxCell>
        <mxCell id="5Gw3UIi5LnQKVMhWuDwl-55" value="" style="endArrow=none;html=1;rounded=0;entryX=0.011;entryY=0.799;entryDx=0;entryDy=0;entryPerimeter=0;" edge="1" parent="1" target="5Gw3UIi5LnQKVMhWuDwl-54">
          <mxGeometry width="50" height="50" relative="1" as="geometry">
            <mxPoint x="590" y="640" as="sourcePoint" />
            <mxPoint x="590" y="580" as="targetPoint" />
            <Array as="points">
              <mxPoint x="590" y="580" />
            </Array>
          </mxGeometry>
        </mxCell>
        <mxCell id="5Gw3UIi5LnQKVMhWuDwl-57" value="&lt;font style=&quot;font-size: 30px;&quot;&gt;S1&lt;/font&gt;" style="text;html=1;align=center;verticalAlign=middle;resizable=0;points=[];autosize=1;strokeColor=none;fillColor=none;" vertex="1" parent="1">
          <mxGeometry x="680" y="188" width="60" height="50" as="geometry" />
        </mxCell>
        <mxCell id="5Gw3UIi5LnQKVMhWuDwl-59" value="&lt;font style=&quot;font-size: 30px;&quot;&gt;P&lt;/font&gt;" style="text;html=1;align=center;verticalAlign=middle;resizable=0;points=[];autosize=1;strokeColor=none;fillColor=none;" vertex="1" parent="1">
          <mxGeometry x="680" y="528" width="40" height="50" as="geometry" />
        </mxCell>
        <mxCell id="5Gw3UIi5LnQKVMhWuDwl-60" style="edgeStyle=orthogonalEdgeStyle;rounded=0;orthogonalLoop=1;jettySize=auto;html=1;exitX=1;exitY=0.5;exitDx=0;exitDy=0;" edge="1" parent="1" source="5Gw3UIi5LnQKVMhWuDwl-61">
          <mxGeometry relative="1" as="geometry">
            <mxPoint x="810" y="812.3913043478261" as="targetPoint" />
          </mxGeometry>
        </mxCell>
        <mxCell id="5Gw3UIi5LnQKVMhWuDwl-61" value="&lt;font style=&quot;font-size: 27px;&quot;&gt;=1&lt;/font&gt;" style="whiteSpace=wrap;html=1;aspect=fixed;" vertex="1" parent="1">
          <mxGeometry x="520" y="782" width="60" height="60" as="geometry" />
        </mxCell>
        <mxCell id="5Gw3UIi5LnQKVMhWuDwl-62" value="" style="endArrow=none;html=1;rounded=0;entryX=0;entryY=0.25;entryDx=0;entryDy=0;" edge="1" parent="1" target="5Gw3UIi5LnQKVMhWuDwl-61" source="5Gw3UIi5LnQKVMhWuDwl-188">
          <mxGeometry width="50" height="50" relative="1" as="geometry">
            <mxPoint x="160" y="797" as="sourcePoint" />
            <mxPoint x="180" y="782" as="targetPoint" />
          </mxGeometry>
        </mxCell>
        <mxCell id="5Gw3UIi5LnQKVMhWuDwl-63" value="" style="endArrow=none;html=1;rounded=0;entryX=0;entryY=0.5;entryDx=0;entryDy=0;" edge="1" parent="1" target="5Gw3UIi5LnQKVMhWuDwl-61" source="5Gw3UIi5LnQKVMhWuDwl-190">
          <mxGeometry width="50" height="50" relative="1" as="geometry">
            <mxPoint x="160" y="812" as="sourcePoint" />
            <mxPoint x="520" y="807" as="targetPoint" />
            <Array as="points">
              <mxPoint x="340" y="812" />
            </Array>
          </mxGeometry>
        </mxCell>
        <mxCell id="5Gw3UIi5LnQKVMhWuDwl-64" value="" style="endArrow=none;html=1;rounded=0;entryX=0;entryY=0.75;entryDx=0;entryDy=0;" edge="1" parent="1" source="5Gw3UIi5LnQKVMhWuDwl-192" target="5Gw3UIi5LnQKVMhWuDwl-61">
          <mxGeometry width="50" height="50" relative="1" as="geometry">
            <mxPoint x="160" y="827" as="sourcePoint" />
            <mxPoint x="530" y="817" as="targetPoint" />
          </mxGeometry>
        </mxCell>
        <mxCell id="5Gw3UIi5LnQKVMhWuDwl-65" value="&lt;p style=&quot;line-height: 100%;&quot;&gt;&lt;font style=&quot;font-size: 11px;&quot;&gt;a1&lt;/font&gt;&lt;/p&gt;" style="rounded=0;whiteSpace=wrap;html=1;" vertex="1" parent="1">
          <mxGeometry x="100" y="792" width="60" height="10" as="geometry" />
        </mxCell>
        <mxCell id="5Gw3UIi5LnQKVMhWuDwl-66" value="b1" style="rounded=0;whiteSpace=wrap;html=1;" vertex="1" parent="1">
          <mxGeometry x="100" y="807" width="60" height="10" as="geometry" />
        </mxCell>
        <mxCell id="5Gw3UIi5LnQKVMhWuDwl-68" value="" style="endArrow=none;html=1;rounded=0;" edge="1" parent="1" source="5Gw3UIi5LnQKVMhWuDwl-70">
          <mxGeometry width="50" height="50" relative="1" as="geometry">
            <mxPoint x="200" y="892" as="sourcePoint" />
            <mxPoint x="200" y="812" as="targetPoint" />
          </mxGeometry>
        </mxCell>
        <mxCell id="5Gw3UIi5LnQKVMhWuDwl-69" value="" style="endArrow=none;html=1;rounded=0;" edge="1" parent="1" source="5Gw3UIi5LnQKVMhWuDwl-197" target="5Gw3UIi5LnQKVMhWuDwl-70">
          <mxGeometry width="50" height="50" relative="1" as="geometry">
            <mxPoint x="200" y="1042" as="sourcePoint" />
            <mxPoint x="200" y="812" as="targetPoint" />
            <Array as="points" />
          </mxGeometry>
        </mxCell>
        <mxCell id="5Gw3UIi5LnQKVMhWuDwl-70" value="" style="ellipse;whiteSpace=wrap;html=1;aspect=fixed;fillColor=#000000;" vertex="1" parent="1">
          <mxGeometry x="190" y="807" width="10" height="10" as="geometry" />
        </mxCell>
        <mxCell id="5Gw3UIi5LnQKVMhWuDwl-71" value="" style="endArrow=none;html=1;rounded=0;" edge="1" parent="1" source="5Gw3UIi5LnQKVMhWuDwl-194" target="5Gw3UIi5LnQKVMhWuDwl-72">
          <mxGeometry width="50" height="50" relative="1" as="geometry">
            <mxPoint x="180" y="1052" as="sourcePoint" />
            <mxPoint x="180" y="797" as="targetPoint" />
            <Array as="points" />
          </mxGeometry>
        </mxCell>
        <mxCell id="5Gw3UIi5LnQKVMhWuDwl-72" value="" style="ellipse;whiteSpace=wrap;html=1;aspect=fixed;fillColor=#000000;" vertex="1" parent="1">
          <mxGeometry x="170" y="792" width="10" height="10" as="geometry" />
        </mxCell>
        <mxCell id="5Gw3UIi5LnQKVMhWuDwl-73" value="" style="endArrow=none;html=1;rounded=0;targetPerimeterSpacing=30;endSize=6;jumpStyle=sharp;shadow=0;entryX=0.01;entryY=0.712;entryDx=0;entryDy=0;entryPerimeter=0;" edge="1" parent="1" source="5Gw3UIi5LnQKVMhWuDwl-203" target="5Gw3UIi5LnQKVMhWuDwl-74">
          <mxGeometry width="50" height="50" relative="1" as="geometry">
            <mxPoint x="190" y="1052" as="sourcePoint" />
            <mxPoint x="440" y="1052" as="targetPoint" />
          </mxGeometry>
        </mxCell>
        <mxCell id="5Gw3UIi5LnQKVMhWuDwl-74" value="&lt;font style=&quot;font-size: 24px;&quot;&gt;&amp;amp;&lt;/font&gt;" style="whiteSpace=wrap;html=1;aspect=fixed;" vertex="1" parent="1">
          <mxGeometry x="440" y="1022" width="50" height="50" as="geometry" />
        </mxCell>
        <mxCell id="5Gw3UIi5LnQKVMhWuDwl-75" value="" style="endArrow=none;html=1;rounded=0;" edge="1" parent="1" target="5Gw3UIi5LnQKVMhWuDwl-76">
          <mxGeometry width="50" height="50" relative="1" as="geometry">
            <mxPoint x="175" y="1022" as="sourcePoint" />
            <mxPoint x="175" y="802" as="targetPoint" />
            <Array as="points">
              <mxPoint x="175" y="1052" />
            </Array>
          </mxGeometry>
        </mxCell>
        <mxCell id="5Gw3UIi5LnQKVMhWuDwl-76" value="" style="ellipse;whiteSpace=wrap;html=1;aspect=fixed;fillColor=#000000;" vertex="1" parent="1">
          <mxGeometry x="170" y="1052" width="10" height="10" as="geometry" />
        </mxCell>
        <mxCell id="5Gw3UIi5LnQKVMhWuDwl-77" value="" style="endArrow=none;html=1;rounded=0;" edge="1" parent="1" target="5Gw3UIi5LnQKVMhWuDwl-76">
          <mxGeometry width="50" height="50" relative="1" as="geometry">
            <mxPoint x="180" y="1132" as="sourcePoint" />
            <mxPoint x="190" y="1082" as="targetPoint" />
            <Array as="points">
              <mxPoint x="175" y="1132" />
            </Array>
          </mxGeometry>
        </mxCell>
        <mxCell id="5Gw3UIi5LnQKVMhWuDwl-78" value="" style="endArrow=none;html=1;rounded=0;entryX=0.006;entryY=0.394;entryDx=0;entryDy=0;entryPerimeter=0;" edge="1" parent="1" target="5Gw3UIi5LnQKVMhWuDwl-79" source="5Gw3UIi5LnQKVMhWuDwl-205">
          <mxGeometry width="50" height="50" relative="1" as="geometry">
            <mxPoint x="180" y="1132" as="sourcePoint" />
            <mxPoint x="430" y="1132" as="targetPoint" />
          </mxGeometry>
        </mxCell>
        <mxCell id="5Gw3UIi5LnQKVMhWuDwl-79" value="&lt;font style=&quot;font-size: 24px;&quot;&gt;&amp;amp;&lt;/font&gt;" style="whiteSpace=wrap;html=1;aspect=fixed;" vertex="1" parent="1">
          <mxGeometry x="440" y="1112" width="50" height="50" as="geometry" />
        </mxCell>
        <mxCell id="5Gw3UIi5LnQKVMhWuDwl-80" value="" style="endArrow=none;html=1;rounded=0;" edge="1" parent="1" target="5Gw3UIi5LnQKVMhWuDwl-81">
          <mxGeometry width="50" height="50" relative="1" as="geometry">
            <mxPoint x="60" y="827" as="sourcePoint" />
            <mxPoint x="520" y="827" as="targetPoint" />
          </mxGeometry>
        </mxCell>
        <mxCell id="5Gw3UIi5LnQKVMhWuDwl-81" value="" style="ellipse;whiteSpace=wrap;html=1;aspect=fixed;fillColor=#000000;" vertex="1" parent="1">
          <mxGeometry x="230" y="822" width="10" height="10" as="geometry" />
        </mxCell>
        <mxCell id="5Gw3UIi5LnQKVMhWuDwl-82" value="" style="endArrow=none;html=1;rounded=0;" edge="1" parent="1" source="5Gw3UIi5LnQKVMhWuDwl-199" target="5Gw3UIi5LnQKVMhWuDwl-81">
          <mxGeometry width="50" height="50" relative="1" as="geometry">
            <mxPoint x="290" y="1150" as="sourcePoint" />
            <mxPoint x="230" y="842" as="targetPoint" />
            <Array as="points" />
          </mxGeometry>
        </mxCell>
        <mxCell id="5Gw3UIi5LnQKVMhWuDwl-83" value="" style="ellipse;whiteSpace=wrap;html=1;aspect=fixed;fillColor=#000000;" vertex="1" parent="1">
          <mxGeometry x="190" y="1032" width="10" height="10" as="geometry" />
        </mxCell>
        <mxCell id="5Gw3UIi5LnQKVMhWuDwl-84" value="" style="endArrow=none;html=1;rounded=0;entryX=0.005;entryY=0.32;entryDx=0;entryDy=0;entryPerimeter=0;" edge="1" parent="1" source="5Gw3UIi5LnQKVMhWuDwl-201" target="5Gw3UIi5LnQKVMhWuDwl-74">
          <mxGeometry width="50" height="50" relative="1" as="geometry">
            <mxPoint x="320" y="1102" as="sourcePoint" />
            <mxPoint x="370" y="1052" as="targetPoint" />
          </mxGeometry>
        </mxCell>
        <mxCell id="5Gw3UIi5LnQKVMhWuDwl-85" value="&lt;font style=&quot;font-size: 24px;&quot;&gt;&amp;amp;&lt;/font&gt;" style="whiteSpace=wrap;html=1;aspect=fixed;" vertex="1" parent="1">
          <mxGeometry x="440" y="1182" width="50" height="50" as="geometry" />
        </mxCell>
        <mxCell id="5Gw3UIi5LnQKVMhWuDwl-86" value="" style="endArrow=none;html=1;rounded=0;" edge="1" parent="1" target="5Gw3UIi5LnQKVMhWuDwl-83">
          <mxGeometry width="50" height="50" relative="1" as="geometry">
            <mxPoint x="200" y="1202" as="sourcePoint" />
            <mxPoint x="200" y="1072" as="targetPoint" />
            <Array as="points">
              <mxPoint x="195" y="1202" />
            </Array>
          </mxGeometry>
        </mxCell>
        <mxCell id="5Gw3UIi5LnQKVMhWuDwl-87" value="" style="endArrow=none;html=1;rounded=0;entryX=-0.01;entryY=0.398;entryDx=0;entryDy=0;entryPerimeter=0;" edge="1" parent="1" target="5Gw3UIi5LnQKVMhWuDwl-85" source="5Gw3UIi5LnQKVMhWuDwl-209">
          <mxGeometry width="50" height="50" relative="1" as="geometry">
            <mxPoint x="200" y="1202" as="sourcePoint" />
            <mxPoint x="300" y="1152" as="targetPoint" />
          </mxGeometry>
        </mxCell>
        <mxCell id="5Gw3UIi5LnQKVMhWuDwl-88" value="" style="endArrow=none;html=1;rounded=0;exitX=0;exitY=0.5;exitDx=0;exitDy=0;" edge="1" parent="1" source="5Gw3UIi5LnQKVMhWuDwl-207" target="5Gw3UIi5LnQKVMhWuDwl-89">
          <mxGeometry width="50" height="50" relative="1" as="geometry">
            <mxPoint x="440" y="1152" as="sourcePoint" />
            <mxPoint x="235" y="832" as="targetPoint" />
            <Array as="points">
              <mxPoint x="235" y="1152" />
            </Array>
          </mxGeometry>
        </mxCell>
        <mxCell id="5Gw3UIi5LnQKVMhWuDwl-89" value="" style="ellipse;whiteSpace=wrap;html=1;aspect=fixed;fillColor=#000000;" vertex="1" parent="1">
          <mxGeometry x="230" y="1147" width="10" height="10" as="geometry" />
        </mxCell>
        <mxCell id="5Gw3UIi5LnQKVMhWuDwl-90" value="" style="endArrow=none;html=1;rounded=0;entryX=0.497;entryY=0.773;entryDx=0;entryDy=0;entryPerimeter=0;" edge="1" parent="1" target="5Gw3UIi5LnQKVMhWuDwl-89">
          <mxGeometry width="50" height="50" relative="1" as="geometry">
            <mxPoint x="240" y="1222" as="sourcePoint" />
            <mxPoint x="250" y="1162" as="targetPoint" />
            <Array as="points">
              <mxPoint x="235" y="1222" />
            </Array>
          </mxGeometry>
        </mxCell>
        <mxCell id="5Gw3UIi5LnQKVMhWuDwl-91" value="" style="endArrow=none;html=1;rounded=0;entryX=-0.06;entryY=0.84;entryDx=0;entryDy=0;entryPerimeter=0;" edge="1" parent="1" target="5Gw3UIi5LnQKVMhWuDwl-85" source="5Gw3UIi5LnQKVMhWuDwl-211">
          <mxGeometry width="50" height="50" relative="1" as="geometry">
            <mxPoint x="240" y="1222" as="sourcePoint" />
            <mxPoint x="330" y="1202" as="targetPoint" />
          </mxGeometry>
        </mxCell>
        <mxCell id="5Gw3UIi5LnQKVMhWuDwl-92" value="" style="endArrow=none;html=1;rounded=0;exitX=1;exitY=0.5;exitDx=0;exitDy=0;entryX=0.014;entryY=0.208;entryDx=0;entryDy=0;entryPerimeter=0;" edge="1" parent="1" source="5Gw3UIi5LnQKVMhWuDwl-213" target="5Gw3UIi5LnQKVMhWuDwl-96">
          <mxGeometry width="50" height="50" relative="1" as="geometry">
            <mxPoint x="560" y="1062" as="sourcePoint" />
            <mxPoint x="600" y="1047" as="targetPoint" />
            <Array as="points">
              <mxPoint x="640" y="1047" />
              <mxPoint x="640" y="1122" />
            </Array>
          </mxGeometry>
        </mxCell>
        <mxCell id="5Gw3UIi5LnQKVMhWuDwl-93" value="" style="endArrow=none;html=1;rounded=0;entryX=-0.008;entryY=0.595;entryDx=0;entryDy=0;entryPerimeter=0;" edge="1" parent="1" target="5Gw3UIi5LnQKVMhWuDwl-96" source="5Gw3UIi5LnQKVMhWuDwl-218">
          <mxGeometry width="50" height="50" relative="1" as="geometry">
            <mxPoint x="490" y="1142" as="sourcePoint" />
            <mxPoint x="600" y="1142" as="targetPoint" />
          </mxGeometry>
        </mxCell>
        <mxCell id="5Gw3UIi5LnQKVMhWuDwl-94" value="" style="endArrow=none;html=1;rounded=0;" edge="1" parent="1" source="5Gw3UIi5LnQKVMhWuDwl-220">
          <mxGeometry width="50" height="50" relative="1" as="geometry">
            <mxPoint x="490" y="1212" as="sourcePoint" />
            <mxPoint x="670" y="1212" as="targetPoint" />
          </mxGeometry>
        </mxCell>
        <mxCell id="5Gw3UIi5LnQKVMhWuDwl-95" style="edgeStyle=orthogonalEdgeStyle;rounded=0;orthogonalLoop=1;jettySize=auto;html=1;exitX=1;exitY=0.5;exitDx=0;exitDy=0;" edge="1" parent="1" source="5Gw3UIi5LnQKVMhWuDwl-222">
          <mxGeometry relative="1" as="geometry">
            <mxPoint x="160" y="1382" as="targetPoint" />
            <Array as="points">
              <mxPoint x="120" y="1272" />
              <mxPoint x="120" y="1382" />
            </Array>
          </mxGeometry>
        </mxCell>
        <mxCell id="5Gw3UIi5LnQKVMhWuDwl-96" value="&lt;font style=&quot;font-size: 24px;&quot;&gt;1&lt;/font&gt;" style="whiteSpace=wrap;html=1;aspect=fixed;" vertex="1" parent="1">
          <mxGeometry x="680" y="1112" width="50" height="50" as="geometry" />
        </mxCell>
        <mxCell id="5Gw3UIi5LnQKVMhWuDwl-97" value="" style="endArrow=none;html=1;rounded=0;entryX=0.011;entryY=0.799;entryDx=0;entryDy=0;entryPerimeter=0;" edge="1" parent="1" target="5Gw3UIi5LnQKVMhWuDwl-96">
          <mxGeometry width="50" height="50" relative="1" as="geometry">
            <mxPoint x="670" y="1212" as="sourcePoint" />
            <mxPoint x="670" y="1152" as="targetPoint" />
            <Array as="points">
              <mxPoint x="670" y="1152" />
            </Array>
          </mxGeometry>
        </mxCell>
        <mxCell id="5Gw3UIi5LnQKVMhWuDwl-99" value="&lt;font style=&quot;font-size: 30px;&quot;&gt;P&lt;/font&gt;2" style="text;html=1;align=center;verticalAlign=middle;resizable=0;points=[];autosize=1;strokeColor=none;fillColor=none;" vertex="1" parent="1">
          <mxGeometry x="755" y="1100" width="50" height="50" as="geometry" />
        </mxCell>
        <mxCell id="5Gw3UIi5LnQKVMhWuDwl-102" value="" style="endArrow=none;html=1;rounded=0;" edge="1" parent="1">
          <mxGeometry width="50" height="50" relative="1" as="geometry">
            <mxPoint x="60" y="730" as="sourcePoint" />
            <mxPoint x="60" y="830" as="targetPoint" />
          </mxGeometry>
        </mxCell>
        <mxCell id="5Gw3UIi5LnQKVMhWuDwl-103" value="" style="endArrow=none;html=1;rounded=0;" edge="1" parent="1" source="5Gw3UIi5LnQKVMhWuDwl-171">
          <mxGeometry width="50" height="50" relative="1" as="geometry">
            <mxPoint x="60" y="730" as="sourcePoint" />
            <mxPoint x="700" y="730" as="targetPoint" />
          </mxGeometry>
        </mxCell>
        <mxCell id="5Gw3UIi5LnQKVMhWuDwl-104" value="" style="endArrow=none;html=1;rounded=0;entryX=1;entryY=0.5;entryDx=0;entryDy=0;" edge="1" parent="1" target="5Gw3UIi5LnQKVMhWuDwl-54">
          <mxGeometry width="50" height="50" relative="1" as="geometry">
            <mxPoint x="700" y="730" as="sourcePoint" />
            <mxPoint x="600" y="710" as="targetPoint" />
            <Array as="points">
              <mxPoint x="700" y="565" />
            </Array>
          </mxGeometry>
        </mxCell>
        <mxCell id="5Gw3UIi5LnQKVMhWuDwl-109" value="2" style="ellipse;whiteSpace=wrap;html=1;aspect=fixed;" vertex="1" parent="1">
          <mxGeometry x="8" y="233" width="12" height="12" as="geometry" />
        </mxCell>
        <mxCell id="5Gw3UIi5LnQKVMhWuDwl-110" value="1" style="ellipse;whiteSpace=wrap;html=1;aspect=fixed;" vertex="1" parent="1">
          <mxGeometry x="8" y="219" width="12" height="12" as="geometry" />
        </mxCell>
        <mxCell id="5Gw3UIi5LnQKVMhWuDwl-111" value="3" style="ellipse;whiteSpace=wrap;html=1;aspect=fixed;" vertex="1" parent="1">
          <mxGeometry x="8" y="248" width="12" height="12" as="geometry" />
        </mxCell>
        <mxCell id="5Gw3UIi5LnQKVMhWuDwl-112" value="4" style="ellipse;whiteSpace=wrap;html=1;aspect=fixed;" vertex="1" parent="1">
          <mxGeometry x="218" y="218" width="12" height="12" as="geometry" />
        </mxCell>
        <mxCell id="5Gw3UIi5LnQKVMhWuDwl-122" value="5" style="ellipse;whiteSpace=wrap;html=1;aspect=fixed;" vertex="1" parent="1">
          <mxGeometry x="228" y="233" width="12" height="12" as="geometry" />
        </mxCell>
        <mxCell id="5Gw3UIi5LnQKVMhWuDwl-123" value="6" style="ellipse;whiteSpace=wrap;html=1;aspect=fixed;" vertex="1" parent="1">
          <mxGeometry x="240" y="249" width="12" height="12" as="geometry" />
        </mxCell>
        <mxCell id="5Gw3UIi5LnQKVMhWuDwl-126" value="7" style="ellipse;whiteSpace=wrap;html=1;aspect=fixed;" vertex="1" parent="1">
          <mxGeometry x="580" y="234" width="12" height="12" as="geometry" />
        </mxCell>
        <mxCell id="5Gw3UIi5LnQKVMhWuDwl-128" value="" style="endArrow=none;html=1;rounded=0;entryX=1;entryY=0.5;entryDx=0;entryDy=0;exitX=0;exitY=0.5;exitDx=0;exitDy=0;" edge="1" parent="1" source="5Gw3UIi5LnQKVMhWuDwl-126" target="5Gw3UIi5LnQKVMhWuDwl-1">
          <mxGeometry width="50" height="50" relative="1" as="geometry">
            <mxPoint x="480" y="350" as="sourcePoint" />
            <mxPoint x="530" y="300" as="targetPoint" />
          </mxGeometry>
        </mxCell>
        <mxCell id="5Gw3UIi5LnQKVMhWuDwl-130" value="" style="endArrow=none;html=1;rounded=0;" edge="1" parent="1" source="5Gw3UIi5LnQKVMhWuDwl-28" target="5Gw3UIi5LnQKVMhWuDwl-129">
          <mxGeometry width="50" height="50" relative="1" as="geometry">
            <mxPoint x="95" y="480" as="sourcePoint" />
            <mxPoint x="95" y="230" as="targetPoint" />
            <Array as="points" />
          </mxGeometry>
        </mxCell>
        <mxCell id="5Gw3UIi5LnQKVMhWuDwl-129" value="8" style="ellipse;whiteSpace=wrap;html=1;aspect=fixed;" vertex="1" parent="1">
          <mxGeometry x="89" y="280" width="12" height="12" as="geometry" />
        </mxCell>
        <mxCell id="5Gw3UIi5LnQKVMhWuDwl-132" value="" style="endArrow=none;html=1;rounded=0;" edge="1" parent="1" source="5Gw3UIi5LnQKVMhWuDwl-40" target="5Gw3UIi5LnQKVMhWuDwl-131">
          <mxGeometry width="50" height="50" relative="1" as="geometry">
            <mxPoint x="115" y="460" as="sourcePoint" />
            <mxPoint x="115" y="245" as="targetPoint" />
            <Array as="points" />
          </mxGeometry>
        </mxCell>
        <mxCell id="5Gw3UIi5LnQKVMhWuDwl-131" value="9" style="ellipse;whiteSpace=wrap;html=1;aspect=fixed;" vertex="1" parent="1">
          <mxGeometry x="109" y="292" width="12" height="12" as="geometry" />
        </mxCell>
        <mxCell id="5Gw3UIi5LnQKVMhWuDwl-134" value="" style="endArrow=none;html=1;rounded=0;" edge="1" parent="1" source="5Gw3UIi5LnQKVMhWuDwl-47" target="5Gw3UIi5LnQKVMhWuDwl-133">
          <mxGeometry width="50" height="50" relative="1" as="geometry">
            <mxPoint x="155" y="575" as="sourcePoint" />
            <mxPoint x="155" y="260" as="targetPoint" />
            <Array as="points" />
          </mxGeometry>
        </mxCell>
        <mxCell id="5Gw3UIi5LnQKVMhWuDwl-133" value="10" style="ellipse;whiteSpace=wrap;html=1;aspect=fixed;" vertex="1" parent="1">
          <mxGeometry x="148" y="293" width="17" height="17" as="geometry" />
        </mxCell>
        <mxCell id="5Gw3UIi5LnQKVMhWuDwl-144" value="" style="endArrow=none;html=1;rounded=0;entryX=0;entryY=0.5;entryDx=0;entryDy=0;" edge="1" parent="1" source="5Gw3UIi5LnQKVMhWuDwl-40" target="5Gw3UIi5LnQKVMhWuDwl-135">
          <mxGeometry width="50" height="50" relative="1" as="geometry">
            <mxPoint x="120" y="465" as="sourcePoint" />
            <mxPoint x="360" y="466" as="targetPoint" />
          </mxGeometry>
        </mxCell>
        <mxCell id="5Gw3UIi5LnQKVMhWuDwl-135" value="11" style="ellipse;whiteSpace=wrap;html=1;aspect=fixed;strokeWidth=1;perimeterSpacing=0;" vertex="1" parent="1">
          <mxGeometry x="235" y="456.5" width="17" height="17" as="geometry" />
        </mxCell>
        <mxCell id="5Gw3UIi5LnQKVMhWuDwl-149" value="" style="endArrow=none;html=1;rounded=0;targetPerimeterSpacing=30;endSize=6;jumpStyle=sharp;shadow=0;entryX=0;entryY=0.5;entryDx=0;entryDy=0;" edge="1" parent="1" source="5Gw3UIi5LnQKVMhWuDwl-28" target="5Gw3UIi5LnQKVMhWuDwl-145">
          <mxGeometry width="50" height="50" relative="1" as="geometry">
            <mxPoint x="100" y="485" as="sourcePoint" />
            <mxPoint x="300" y="492" as="targetPoint" />
          </mxGeometry>
        </mxCell>
        <mxCell id="5Gw3UIi5LnQKVMhWuDwl-145" value="12" style="ellipse;whiteSpace=wrap;html=1;aspect=fixed;strokeWidth=1;perimeterSpacing=0;" vertex="1" parent="1">
          <mxGeometry x="300" y="476.5" width="17" height="17" as="geometry" />
        </mxCell>
        <mxCell id="5Gw3UIi5LnQKVMhWuDwl-157" value="" style="endArrow=none;html=1;rounded=0;entryX=0;entryY=0.5;entryDx=0;entryDy=0;" edge="1" parent="1" target="5Gw3UIi5LnQKVMhWuDwl-150">
          <mxGeometry width="50" height="50" relative="1" as="geometry">
            <mxPoint x="100" y="560" as="sourcePoint" />
            <mxPoint x="360" y="560" as="targetPoint" />
          </mxGeometry>
        </mxCell>
        <mxCell id="5Gw3UIi5LnQKVMhWuDwl-150" value="13" style="ellipse;whiteSpace=wrap;html=1;aspect=fixed;strokeWidth=1;perimeterSpacing=0;" vertex="1" parent="1">
          <mxGeometry x="260" y="550" width="17" height="17" as="geometry" />
        </mxCell>
        <mxCell id="5Gw3UIi5LnQKVMhWuDwl-159" value="" style="endArrow=none;html=1;rounded=0;exitX=1;exitY=0.5;exitDx=0;exitDy=0;entryX=0;entryY=0.5;entryDx=0;entryDy=0;" edge="1" parent="1" source="5Gw3UIi5LnQKVMhWuDwl-24" target="5Gw3UIi5LnQKVMhWuDwl-158">
          <mxGeometry width="50" height="50" relative="1" as="geometry">
            <mxPoint x="410" y="475" as="sourcePoint" />
            <mxPoint x="601" y="550" as="targetPoint" />
            <Array as="points" />
          </mxGeometry>
        </mxCell>
        <mxCell id="5Gw3UIi5LnQKVMhWuDwl-158" value="17" style="ellipse;whiteSpace=wrap;html=1;aspect=fixed;strokeWidth=1;perimeterSpacing=0;" vertex="1" parent="1">
          <mxGeometry x="473" y="466.5" width="17" height="17" as="geometry" />
        </mxCell>
        <mxCell id="5Gw3UIi5LnQKVMhWuDwl-160" value="14" style="ellipse;whiteSpace=wrap;html=1;aspect=fixed;strokeWidth=1;perimeterSpacing=0;" vertex="1" parent="1">
          <mxGeometry x="283" y="575" width="17" height="17" as="geometry" />
        </mxCell>
        <mxCell id="5Gw3UIi5LnQKVMhWuDwl-162" value="" style="endArrow=none;html=1;rounded=0;" edge="1" parent="1">
          <mxGeometry width="50" height="50" relative="1" as="geometry">
            <mxPoint x="120" y="630" as="sourcePoint" />
            <mxPoint x="277" y="629" as="targetPoint" />
          </mxGeometry>
        </mxCell>
        <mxCell id="5Gw3UIi5LnQKVMhWuDwl-161" value="&lt;div&gt;15&lt;/div&gt;" style="ellipse;whiteSpace=wrap;html=1;aspect=fixed;strokeWidth=1;perimeterSpacing=0;" vertex="1" parent="1">
          <mxGeometry x="277" y="620" width="17" height="17" as="geometry" />
        </mxCell>
        <mxCell id="5Gw3UIi5LnQKVMhWuDwl-166" value="" style="endArrow=none;html=1;rounded=0;entryX=0;entryY=0.5;entryDx=0;entryDy=0;" edge="1" parent="1" target="5Gw3UIi5LnQKVMhWuDwl-163">
          <mxGeometry width="50" height="50" relative="1" as="geometry">
            <mxPoint x="160" y="650" as="sourcePoint" />
            <mxPoint x="357" y="652" as="targetPoint" />
          </mxGeometry>
        </mxCell>
        <mxCell id="5Gw3UIi5LnQKVMhWuDwl-163" value="16" style="ellipse;whiteSpace=wrap;html=1;aspect=fixed;strokeWidth=1;perimeterSpacing=0;" vertex="1" parent="1">
          <mxGeometry x="228" y="643" width="17" height="17" as="geometry" />
        </mxCell>
        <mxCell id="5Gw3UIi5LnQKVMhWuDwl-168" value="" style="endArrow=none;html=1;rounded=0;entryX=-0.008;entryY=0.595;entryDx=0;entryDy=0;entryPerimeter=0;" edge="1" parent="1" target="5Gw3UIi5LnQKVMhWuDwl-167">
          <mxGeometry width="50" height="50" relative="1" as="geometry">
            <mxPoint x="410" y="570" as="sourcePoint" />
            <mxPoint x="600" y="570" as="targetPoint" />
          </mxGeometry>
        </mxCell>
        <mxCell id="5Gw3UIi5LnQKVMhWuDwl-167" value="18" style="ellipse;whiteSpace=wrap;html=1;aspect=fixed;strokeWidth=1;perimeterSpacing=0;" vertex="1" parent="1">
          <mxGeometry x="473" y="561" width="17" height="17" as="geometry" />
        </mxCell>
        <mxCell id="5Gw3UIi5LnQKVMhWuDwl-170" value="" style="endArrow=none;html=1;rounded=0;" edge="1" parent="1" target="5Gw3UIi5LnQKVMhWuDwl-169">
          <mxGeometry width="50" height="50" relative="1" as="geometry">
            <mxPoint x="410" y="640" as="sourcePoint" />
            <mxPoint x="590" y="640" as="targetPoint" />
          </mxGeometry>
        </mxCell>
        <mxCell id="5Gw3UIi5LnQKVMhWuDwl-169" value="19" style="ellipse;whiteSpace=wrap;html=1;aspect=fixed;strokeWidth=1;perimeterSpacing=0;" vertex="1" parent="1">
          <mxGeometry x="473" y="637" width="17" height="17" as="geometry" />
        </mxCell>
        <mxCell id="5Gw3UIi5LnQKVMhWuDwl-176" value="" style="endArrow=none;html=1;rounded=0;" edge="1" parent="1" target="5Gw3UIi5LnQKVMhWuDwl-171">
          <mxGeometry width="50" height="50" relative="1" as="geometry">
            <mxPoint x="60" y="730" as="sourcePoint" />
            <mxPoint x="700" y="730" as="targetPoint" />
          </mxGeometry>
        </mxCell>
        <mxCell id="5Gw3UIi5LnQKVMhWuDwl-171" value="20" style="ellipse;whiteSpace=wrap;html=1;aspect=fixed;strokeWidth=1;perimeterSpacing=0;" vertex="1" parent="1">
          <mxGeometry x="473" y="720" width="17" height="17" as="geometry" />
        </mxCell>
        <mxCell id="5Gw3UIi5LnQKVMhWuDwl-177" value="21" style="ellipse;whiteSpace=wrap;html=1;aspect=fixed;strokeWidth=1;perimeterSpacing=0;" vertex="1" parent="1">
          <mxGeometry x="83" y="788.5" width="17" height="17" as="geometry" />
        </mxCell>
        <mxCell id="5Gw3UIi5LnQKVMhWuDwl-178" value="22" style="ellipse;whiteSpace=wrap;html=1;aspect=fixed;strokeWidth=1;perimeterSpacing=0;" vertex="1" parent="1">
          <mxGeometry x="83" y="805.5" width="17" height="17" as="geometry" />
        </mxCell>
        <mxCell id="5Gw3UIi5LnQKVMhWuDwl-179" value="&lt;font style=&quot;font-size: 30px;&quot;&gt;S2&lt;/font&gt;" style="text;html=1;align=center;verticalAlign=middle;resizable=0;points=[];autosize=1;strokeColor=none;fillColor=none;" vertex="1" parent="1">
          <mxGeometry x="767" y="767" width="60" height="50" as="geometry" />
        </mxCell>
        <mxCell id="5Gw3UIi5LnQKVMhWuDwl-189" value="" style="endArrow=none;html=1;rounded=0;entryX=0;entryY=0.25;entryDx=0;entryDy=0;" edge="1" parent="1" target="5Gw3UIi5LnQKVMhWuDwl-188">
          <mxGeometry width="50" height="50" relative="1" as="geometry">
            <mxPoint x="160" y="797" as="sourcePoint" />
            <mxPoint x="520" y="797" as="targetPoint" />
          </mxGeometry>
        </mxCell>
        <mxCell id="5Gw3UIi5LnQKVMhWuDwl-188" value="23" style="ellipse;whiteSpace=wrap;html=1;aspect=fixed;strokeWidth=1;perimeterSpacing=0;" vertex="1" parent="1">
          <mxGeometry x="370" y="788.5" width="17" height="17" as="geometry" />
        </mxCell>
        <mxCell id="5Gw3UIi5LnQKVMhWuDwl-191" value="" style="endArrow=none;html=1;rounded=0;entryX=0;entryY=0.5;entryDx=0;entryDy=0;" edge="1" parent="1" target="5Gw3UIi5LnQKVMhWuDwl-190">
          <mxGeometry width="50" height="50" relative="1" as="geometry">
            <mxPoint x="160" y="812" as="sourcePoint" />
            <mxPoint x="520" y="812" as="targetPoint" />
            <Array as="points" />
          </mxGeometry>
        </mxCell>
        <mxCell id="5Gw3UIi5LnQKVMhWuDwl-190" value="24" style="ellipse;whiteSpace=wrap;html=1;aspect=fixed;strokeWidth=1;perimeterSpacing=0;" vertex="1" parent="1">
          <mxGeometry x="300" y="802" width="17" height="17" as="geometry" />
        </mxCell>
        <mxCell id="5Gw3UIi5LnQKVMhWuDwl-193" value="" style="endArrow=none;html=1;rounded=0;entryX=0;entryY=0.75;entryDx=0;entryDy=0;" edge="1" parent="1" source="5Gw3UIi5LnQKVMhWuDwl-81" target="5Gw3UIi5LnQKVMhWuDwl-192">
          <mxGeometry width="50" height="50" relative="1" as="geometry">
            <mxPoint x="240" y="827" as="sourcePoint" />
            <mxPoint x="520" y="827" as="targetPoint" />
          </mxGeometry>
        </mxCell>
        <mxCell id="5Gw3UIi5LnQKVMhWuDwl-192" value="25" style="ellipse;whiteSpace=wrap;html=1;aspect=fixed;strokeWidth=1;perimeterSpacing=0;" vertex="1" parent="1">
          <mxGeometry x="370" y="819" width="17" height="17" as="geometry" />
        </mxCell>
        <mxCell id="5Gw3UIi5LnQKVMhWuDwl-195" value="" style="endArrow=none;html=1;rounded=0;" edge="1" parent="1" source="5Gw3UIi5LnQKVMhWuDwl-76" target="5Gw3UIi5LnQKVMhWuDwl-194">
          <mxGeometry width="50" height="50" relative="1" as="geometry">
            <mxPoint x="175" y="1052" as="sourcePoint" />
            <mxPoint x="175" y="802" as="targetPoint" />
            <Array as="points" />
          </mxGeometry>
        </mxCell>
        <mxCell id="5Gw3UIi5LnQKVMhWuDwl-194" value="27" style="ellipse;whiteSpace=wrap;html=1;aspect=fixed;strokeWidth=1;perimeterSpacing=0;" vertex="1" parent="1">
          <mxGeometry x="165" y="920" width="17" height="17" as="geometry" />
        </mxCell>
        <mxCell id="5Gw3UIi5LnQKVMhWuDwl-196" value="26" style="ellipse;whiteSpace=wrap;html=1;aspect=fixed;strokeWidth=1;perimeterSpacing=0;" vertex="1" parent="1">
          <mxGeometry x="670" y="805" width="17" height="17" as="geometry" />
        </mxCell>
        <mxCell id="5Gw3UIi5LnQKVMhWuDwl-198" value="" style="endArrow=none;html=1;rounded=0;" edge="1" parent="1" source="5Gw3UIi5LnQKVMhWuDwl-83" target="5Gw3UIi5LnQKVMhWuDwl-197">
          <mxGeometry width="50" height="50" relative="1" as="geometry">
            <mxPoint x="195" y="1032" as="sourcePoint" />
            <mxPoint x="195" y="817" as="targetPoint" />
            <Array as="points" />
          </mxGeometry>
        </mxCell>
        <mxCell id="5Gw3UIi5LnQKVMhWuDwl-197" value="28" style="ellipse;whiteSpace=wrap;html=1;aspect=fixed;strokeWidth=1;perimeterSpacing=0;" vertex="1" parent="1">
          <mxGeometry x="186.5" y="870" width="17" height="17" as="geometry" />
        </mxCell>
        <mxCell id="5Gw3UIi5LnQKVMhWuDwl-200" value="" style="endArrow=none;html=1;rounded=0;" edge="1" parent="1" source="5Gw3UIi5LnQKVMhWuDwl-89" target="5Gw3UIi5LnQKVMhWuDwl-199">
          <mxGeometry width="50" height="50" relative="1" as="geometry">
            <mxPoint x="235" y="1147" as="sourcePoint" />
            <mxPoint x="235" y="832" as="targetPoint" />
            <Array as="points" />
          </mxGeometry>
        </mxCell>
        <mxCell id="5Gw3UIi5LnQKVMhWuDwl-199" value="29" style="ellipse;whiteSpace=wrap;html=1;aspect=fixed;strokeWidth=1;perimeterSpacing=0;" vertex="1" parent="1">
          <mxGeometry x="223" y="903" width="17" height="17" as="geometry" />
        </mxCell>
        <mxCell id="5Gw3UIi5LnQKVMhWuDwl-202" value="" style="endArrow=none;html=1;rounded=0;entryX=0.005;entryY=0.32;entryDx=0;entryDy=0;entryPerimeter=0;" edge="1" parent="1" source="5Gw3UIi5LnQKVMhWuDwl-83" target="5Gw3UIi5LnQKVMhWuDwl-201">
          <mxGeometry width="50" height="50" relative="1" as="geometry">
            <mxPoint x="200" y="1037" as="sourcePoint" />
            <mxPoint x="440" y="1038" as="targetPoint" />
          </mxGeometry>
        </mxCell>
        <mxCell id="5Gw3UIi5LnQKVMhWuDwl-201" value="30" style="ellipse;whiteSpace=wrap;html=1;aspect=fixed;strokeWidth=1;perimeterSpacing=0;" vertex="1" parent="1">
          <mxGeometry x="310" y="1032" width="17" height="17" as="geometry" />
        </mxCell>
        <mxCell id="5Gw3UIi5LnQKVMhWuDwl-204" value="" style="endArrow=none;html=1;rounded=0;targetPerimeterSpacing=30;endSize=6;jumpStyle=sharp;shadow=0;entryX=0;entryY=0.5;entryDx=0;entryDy=0;" edge="1" parent="1" source="5Gw3UIi5LnQKVMhWuDwl-76" target="5Gw3UIi5LnQKVMhWuDwl-203">
          <mxGeometry width="50" height="50" relative="1" as="geometry">
            <mxPoint x="180" y="1057" as="sourcePoint" />
            <mxPoint x="441" y="1058" as="targetPoint" />
          </mxGeometry>
        </mxCell>
        <mxCell id="5Gw3UIi5LnQKVMhWuDwl-203" value="31" style="ellipse;whiteSpace=wrap;html=1;aspect=fixed;strokeWidth=1;perimeterSpacing=0;" vertex="1" parent="1">
          <mxGeometry x="353" y="1049" width="17" height="17" as="geometry" />
        </mxCell>
        <mxCell id="5Gw3UIi5LnQKVMhWuDwl-206" value="" style="endArrow=none;html=1;rounded=0;entryX=0;entryY=0.5;entryDx=0;entryDy=0;" edge="1" parent="1" target="5Gw3UIi5LnQKVMhWuDwl-205">
          <mxGeometry width="50" height="50" relative="1" as="geometry">
            <mxPoint x="180" y="1132" as="sourcePoint" />
            <mxPoint x="440" y="1132" as="targetPoint" />
          </mxGeometry>
        </mxCell>
        <mxCell id="5Gw3UIi5LnQKVMhWuDwl-205" value="32" style="ellipse;whiteSpace=wrap;html=1;aspect=fixed;strokeWidth=1;perimeterSpacing=0;" vertex="1" parent="1">
          <mxGeometry x="336" y="1120" width="17" height="17" as="geometry" />
        </mxCell>
        <mxCell id="5Gw3UIi5LnQKVMhWuDwl-208" value="" style="endArrow=none;html=1;rounded=0;exitX=0.001;exitY=0.808;exitDx=0;exitDy=0;exitPerimeter=0;" edge="1" parent="1" source="5Gw3UIi5LnQKVMhWuDwl-79" target="5Gw3UIi5LnQKVMhWuDwl-207">
          <mxGeometry width="50" height="50" relative="1" as="geometry">
            <mxPoint x="440" y="1152" as="sourcePoint" />
            <mxPoint x="235" y="1152" as="targetPoint" />
            <Array as="points" />
          </mxGeometry>
        </mxCell>
        <mxCell id="5Gw3UIi5LnQKVMhWuDwl-207" value="33" style="ellipse;whiteSpace=wrap;html=1;aspect=fixed;strokeWidth=1;perimeterSpacing=0;" vertex="1" parent="1">
          <mxGeometry x="283" y="1143.5" width="17" height="17" as="geometry" />
        </mxCell>
        <mxCell id="5Gw3UIi5LnQKVMhWuDwl-210" value="" style="endArrow=none;html=1;rounded=0;entryX=0;entryY=0.5;entryDx=0;entryDy=0;" edge="1" parent="1" target="5Gw3UIi5LnQKVMhWuDwl-209">
          <mxGeometry width="50" height="50" relative="1" as="geometry">
            <mxPoint x="200" y="1202" as="sourcePoint" />
            <mxPoint x="440" y="1202" as="targetPoint" />
          </mxGeometry>
        </mxCell>
        <mxCell id="5Gw3UIi5LnQKVMhWuDwl-209" value="34" style="ellipse;whiteSpace=wrap;html=1;aspect=fixed;strokeWidth=1;perimeterSpacing=0;" vertex="1" parent="1">
          <mxGeometry x="294" y="1190" width="17" height="17" as="geometry" />
        </mxCell>
        <mxCell id="5Gw3UIi5LnQKVMhWuDwl-212" value="" style="endArrow=none;html=1;rounded=0;entryX=0;entryY=0.5;entryDx=0;entryDy=0;" edge="1" parent="1" target="5Gw3UIi5LnQKVMhWuDwl-211">
          <mxGeometry width="50" height="50" relative="1" as="geometry">
            <mxPoint x="240" y="1222" as="sourcePoint" />
            <mxPoint x="437" y="1224" as="targetPoint" />
          </mxGeometry>
        </mxCell>
        <mxCell id="5Gw3UIi5LnQKVMhWuDwl-211" value="35" style="ellipse;whiteSpace=wrap;html=1;aspect=fixed;strokeWidth=1;perimeterSpacing=0;" vertex="1" parent="1">
          <mxGeometry x="353" y="1215" width="17" height="17" as="geometry" />
        </mxCell>
        <mxCell id="5Gw3UIi5LnQKVMhWuDwl-217" value="" style="endArrow=none;html=1;rounded=0;exitX=1;exitY=0.5;exitDx=0;exitDy=0;entryX=0;entryY=0.5;entryDx=0;entryDy=0;" edge="1" parent="1" source="5Gw3UIi5LnQKVMhWuDwl-74" target="5Gw3UIi5LnQKVMhWuDwl-213">
          <mxGeometry width="50" height="50" relative="1" as="geometry">
            <mxPoint x="490" y="1047" as="sourcePoint" />
            <mxPoint x="681" y="1122" as="targetPoint" />
            <Array as="points" />
          </mxGeometry>
        </mxCell>
        <mxCell id="5Gw3UIi5LnQKVMhWuDwl-213" value="&lt;div&gt;36&lt;/div&gt;" style="ellipse;whiteSpace=wrap;html=1;aspect=fixed;strokeWidth=1;perimeterSpacing=0;" vertex="1" parent="1">
          <mxGeometry x="550" y="1038.5" width="17" height="17" as="geometry" />
        </mxCell>
        <mxCell id="5Gw3UIi5LnQKVMhWuDwl-219" value="" style="endArrow=none;html=1;rounded=0;entryX=-0.008;entryY=0.595;entryDx=0;entryDy=0;entryPerimeter=0;" edge="1" parent="1" target="5Gw3UIi5LnQKVMhWuDwl-218">
          <mxGeometry width="50" height="50" relative="1" as="geometry">
            <mxPoint x="490" y="1142" as="sourcePoint" />
            <mxPoint x="680" y="1142" as="targetPoint" />
          </mxGeometry>
        </mxCell>
        <mxCell id="5Gw3UIi5LnQKVMhWuDwl-218" value="37" style="ellipse;whiteSpace=wrap;html=1;aspect=fixed;strokeWidth=1;perimeterSpacing=0;" vertex="1" parent="1">
          <mxGeometry x="567" y="1133" width="17" height="17" as="geometry" />
        </mxCell>
        <mxCell id="5Gw3UIi5LnQKVMhWuDwl-221" value="" style="endArrow=none;html=1;rounded=0;" edge="1" parent="1" target="5Gw3UIi5LnQKVMhWuDwl-220">
          <mxGeometry width="50" height="50" relative="1" as="geometry">
            <mxPoint x="490" y="1212" as="sourcePoint" />
            <mxPoint x="670" y="1212" as="targetPoint" />
          </mxGeometry>
        </mxCell>
        <mxCell id="5Gw3UIi5LnQKVMhWuDwl-220" value="38" style="ellipse;whiteSpace=wrap;html=1;aspect=fixed;strokeWidth=1;perimeterSpacing=0;" vertex="1" parent="1">
          <mxGeometry x="567" y="1207" width="17" height="17" as="geometry" />
        </mxCell>
        <mxCell id="5Gw3UIi5LnQKVMhWuDwl-222" value="39" style="ellipse;whiteSpace=wrap;html=1;aspect=fixed;strokeWidth=1;perimeterSpacing=0;" vertex="1" parent="1">
          <mxGeometry x="510" y="1260" width="17" height="17" as="geometry" />
        </mxCell>
        <mxCell id="5Gw3UIi5LnQKVMhWuDwl-224" value="" style="endArrow=none;html=1;rounded=0;exitX=1;exitY=0.5;exitDx=0;exitDy=0;entryX=1;entryY=0.5;entryDx=0;entryDy=0;" edge="1" parent="1" source="5Gw3UIi5LnQKVMhWuDwl-222" target="5Gw3UIi5LnQKVMhWuDwl-96">
          <mxGeometry width="50" height="50" relative="1" as="geometry">
            <mxPoint x="480" y="1270" as="sourcePoint" />
            <mxPoint x="790" y="1269" as="targetPoint" />
            <Array as="points">
              <mxPoint x="790" y="1269" />
              <mxPoint x="790" y="1140" />
            </Array>
          </mxGeometry>
        </mxCell>
      </root>
    </mxGraphModel>
  </diagram>
</mxfile>
